<svg xmlns="http://www.w3.org/2000/svg" viewBox="0 0 500 500"><g id="freepik--Coins--inject-16"><path d="M234.35,358.43A3.33,3.33,0,1,1,231,355.1,3.33,3.33,0,0,1,234.35,358.43Z" style="fill:none;stroke:#263238;stroke-linecap:round;stroke-linejoin:round"></path><path d="M237.87,338.67a2.35,2.35,0,1,1-2.34-2.35A2.34,2.34,0,0,1,237.87,338.67Z" style="fill:none;stroke:#263238;stroke-linecap:round;stroke-linejoin:round"></path><circle cx="359.52" cy="183.27" r="36.55" style="fill:#263238;stroke:#263238;stroke-linecap:round;stroke-linejoin:round"></circle><circle cx="357.28" cy="182.59" r="36.55" style="fill:#fff;stroke:#263238;stroke-linecap:round;stroke-linejoin:round"></circle><path d="M357.24,151.56a31.05,31.05,0,1,0,31,31.05A31.08,31.08,0,0,0,357.24,151.56Z" style="fill:#fff;stroke:#263238;stroke-linecap:round;stroke-linejoin:round"></path><path d="M365.73,182.45v-.21c4.68-1,7.23-3.16,7.23-7.64,0-5.09-3.28-8-9.5-8.88v-7h-3.95v6.74h-3.66V158.7h-4v6.73h-8.8v5.19h1.73a1.79,1.79,0,0,1,1.48,1.53v22.17a1.79,1.79,0,0,1-1.48,1.53H343.1v5.25h8.8v6.67h4V201.1h3.66v6.68h3.95v-7c6.7-.94,10.72-4.27,10.72-10.06C374.18,185.91,371.18,183.26,365.73,182.45Zm-9.94-12.31h2.74c4.06,0,5.49,1.59,5.49,4.83s-1.48,4.94-5.49,4.94h-2.74Zm3.07,26.45h-3.07V185.45h3.07c4.61,0,6,1.76,6,5.38S363.47,196.59,358.86,196.59Z" style="fill:#263238"></path><circle cx="362.57" cy="94.94" r="36.55" transform="translate(39.07 284.18) rotate(-45)" style="fill:#263238;stroke:#263238;stroke-linecap:round;stroke-linejoin:round"></circle><circle cx="360.34" cy="94.25" r="36.55" transform="translate(-10.33 57.78) rotate(-9.04)" style="fill:#fff;stroke:#263238;stroke-linecap:round;stroke-linejoin:round"></circle><path d="M360.29,63.22a31.05,31.05,0,1,0,31,31.05A31.08,31.08,0,0,0,360.29,63.22Z" style="fill:#fff;stroke:#263238;stroke-linecap:round;stroke-linejoin:round"></path><path d="M368.78,94.11V93.9c4.69-1,7.24-3.15,7.24-7.64,0-5.09-3.28-8-9.5-8.88v-7h-3.95V77.1H358.9V70.36H355v6.73h-8.8v5.2h1.73a1.78,1.78,0,0,1,1.48,1.52V106a1.79,1.79,0,0,1-1.48,1.53h-1.73v5.25H355v6.67h3.94v-6.67h3.67v6.68h3.95v-7c6.7-.94,10.72-4.27,10.72-10.06C377.24,97.57,374.24,94.92,368.78,94.11ZM358.84,81.8h2.75c4.06,0,5.49,1.59,5.49,4.83s-1.49,4.94-5.49,4.94h-2.75Zm3.08,26.46h-3.08V97.11h3.08c4.61,0,6,1.76,6,5.38S366.53,108.26,361.92,108.26Z" style="fill:#263238"></path><circle cx="450.72" cy="150.61" r="36.55" style="fill:#263238;stroke:#263238;stroke-linecap:round;stroke-linejoin:round"></circle><circle cx="448.48" cy="149.92" r="36.55" style="fill:#fff;stroke:#263238;stroke-linecap:round;stroke-linejoin:round"></circle><path d="M448.44,118.89a31.05,31.05,0,1,0,31.05,31.05A31.09,31.09,0,0,0,448.44,118.89Z" style="fill:#fff;stroke:#263238;stroke-linecap:round;stroke-linejoin:round"></path><path d="M456.93,149.78v-.2c4.69-1,7.24-3.16,7.24-7.65,0-5.08-3.28-8-9.5-8.87v-7h-3.95v6.73h-3.67V126H443.1v6.72h-8.79V138H436a1.79,1.79,0,0,1,1.48,1.53v22.17a1.78,1.78,0,0,1-1.48,1.52h-1.73v5.25h8.79v6.68h3.95v-6.68h3.67v6.68h3.95v-7c6.69-1,10.72-4.27,10.72-10.06C465.39,153.25,462.38,150.6,456.93,149.78ZM447,137.48h2.75c4.06,0,5.48,1.59,5.48,4.83s-1.48,4.93-5.48,4.93H447Zm3.08,26.45H447V152.79h3.08c4.61,0,6,1.75,6,5.38S454.68,163.93,450.07,163.93Z" style="fill:#263238"></path><circle cx="322.82" cy="253.56" r="29.95" transform="translate(-36.52 452.02) rotate(-67.06)" style="fill:#263238;stroke:#263238;stroke-linecap:round;stroke-linejoin:round"></circle><circle cx="320.98" cy="253" r="29.95" style="fill:#fff;stroke:#263238;stroke-linecap:round;stroke-linejoin:round"></circle><path d="M321,227.58A25.44,25.44,0,1,0,346.38,253,25.47,25.47,0,0,0,321,227.58Z" style="fill:#fff;stroke:#263238;stroke-linecap:round;stroke-linejoin:round"></path><path d="M327.9,252.88v-.16c3.84-.8,5.93-2.59,5.93-6.27,0-4.16-2.69-6.54-7.78-7.27v-5.75h-3.24V239h-3v-5.51h-3.24v5.51h-7.21v4.26h1.42a1.45,1.45,0,0,1,1.21,1.25v18.16a1.45,1.45,0,0,1-1.21,1.25h-1.42v4.31h7.21v5.46h3.24v-5.46h3v5.47h3.24v-5.7c5.48-.77,8.78-3.5,8.78-8.24C334.83,255.72,332.37,253.55,327.9,252.88Zm-8.14-10.08H322c3.32,0,4.49,1.31,4.49,4s-1.21,4.05-4.49,4.05h-2.25Zm2.52,21.67h-2.52v-9.12h2.52c3.77,0,4.94,1.44,4.94,4.4S326.05,264.47,322.28,264.47Z" style="fill:#263238"></path><circle cx="356.55" cy="308.09" r="26.01" transform="translate(-65.93 516.79) rotate(-67.12)" style="fill:#263238;stroke:#263238;stroke-linecap:round;stroke-linejoin:round"></circle><circle cx="354.96" cy="307.6" r="26.01" transform="translate(-60.61 88.7) rotate(-13.13)" style="fill:#fff;stroke:#263238;stroke-linecap:round;stroke-linejoin:round"></circle><path d="M354.93,285.52A22.09,22.09,0,1,0,377,307.61,22.12,22.12,0,0,0,354.93,285.52Z" style="fill:#fff;stroke:#263238;stroke-linecap:round;stroke-linejoin:round"></path><path d="M361,307.5v-.15c3.34-.69,5.15-2.24,5.15-5.44,0-3.62-2.34-5.68-6.76-6.31v-5h-2.81v4.8h-2.61V290.6h-2.81v4.79h-6.26v3.7h1.24a1.27,1.27,0,0,1,1.05,1.08V316a1.27,1.27,0,0,1-1.05,1.08h-1.24v3.74h6.26v4.75h2.81v-4.75h2.61v4.76h2.81v-5c4.76-.67,7.63-3,7.63-7.15C367,310,364.85,308.08,361,307.5Zm-7.07-8.76h2c2.89,0,3.91,1.14,3.91,3.44s-1.06,3.51-3.91,3.51h-2Zm2.19,18.82H353.9v-7.92h2.19c3.28,0,4.29,1.25,4.29,3.82S359.37,317.56,356.09,317.56Z" style="fill:#263238"></path><circle cx="296.45" cy="331.34" r="20.42" transform="translate(-67.68 76.23) rotate(-13.17)" style="fill:#263238;stroke:#263238;stroke-linecap:round;stroke-linejoin:round"></circle><circle cx="295.2" cy="330.96" r="20.42" style="fill:#fff;stroke:#263238;stroke-linecap:round;stroke-linejoin:round"></circle><path d="M295.17,313.62A17.35,17.35,0,1,0,312.52,331,17.38,17.38,0,0,0,295.17,313.62Z" style="fill:#fff;stroke:#263238;stroke-linecap:round;stroke-linejoin:round"></path><path d="M299.92,330.88v-.11c2.62-.54,4-1.77,4-4.27,0-2.85-1.83-4.47-5.31-5v-3.93h-2.2v3.77H294.4v-3.76h-2.21v3.76h-4.92v2.91h1a1,1,0,0,1,.83.85v12.39a1,1,0,0,1-.83.85h-1v2.93h4.92V345h2.21V341.3h2.05V345h2.2v-3.89c3.74-.52,6-2.38,6-5.62C304.64,332.82,303,331.34,299.92,330.88ZM294.36,324h1.54c2.27,0,3.06.89,3.06,2.69s-.82,2.76-3.06,2.76h-1.54Zm1.72,14.78h-1.72v-6.23h1.72c2.58,0,3.37,1,3.37,3S298.66,338.79,296.08,338.79Z" style="fill:#263238"></path><circle cx="257.75" cy="309.73" r="14.87" transform="translate(-64.63 67.99) rotate(-13.37)" style="fill:#263238;stroke:#263238;stroke-linecap:round;stroke-linejoin:round"></circle><circle cx="256.84" cy="309.45" r="14.87" transform="translate(-127.79 426.87) rotate(-67.28)" style="fill:#fff;stroke:#263238;stroke-linecap:round;stroke-linejoin:round"></circle><path d="M256.83,296.83a12.63,12.63,0,1,0,12.62,12.63A12.64,12.64,0,0,0,256.83,296.83Z" style="fill:#fff;stroke:#263238;stroke-linecap:round;stroke-linejoin:round"></path><path d="M260.28,309.39v-.08c1.9-.4,2.94-1.29,2.94-3.11,0-2.07-1.33-3.25-3.86-3.61v-2.86h-1.61v2.74h-1.49v-2.74h-1.61v2.74h-3.57v2.11h.7a.73.73,0,0,1,.6.62v9a.72.72,0,0,1-.6.62h-.7V317h3.57v2.71h1.61V317h1.49v2.72h1.61v-2.83c2.72-.38,4.36-1.74,4.36-4.09C263.72,310.8,262.5,309.72,260.28,309.39Zm-4-5h1.11c1.65,0,2.23.64,2.23,2s-.6,2-2.23,2h-1.11Zm1.25,10.75h-1.25v-4.53h1.25c1.87,0,2.45.72,2.45,2.19S259.36,315.14,257.49,315.14Z" style="fill:#263238"></path><circle cx="393.49" cy="242.16" r="14.87" transform="translate(-44.89 96.23) rotate(-13.2)" style="fill:#263238;stroke:#263238;stroke-linecap:round;stroke-linejoin:round"></circle><circle cx="392.58" cy="241.88" r="14.87" style="fill:#fff;stroke:#263238;stroke-linecap:round;stroke-linejoin:round"></circle><path d="M392.56,229.26a12.63,12.63,0,1,0,12.63,12.63A12.65,12.65,0,0,0,392.56,229.26Z" style="fill:#fff;stroke:#263238;stroke-linecap:round;stroke-linejoin:round"></path><path d="M396,241.82v-.08c1.9-.39,2.94-1.28,2.94-3.11,0-2.07-1.34-3.25-3.87-3.61v-2.85h-1.6v2.74H392v-2.73h-1.61v2.73h-3.58V237h.71a.72.72,0,0,1,.6.62v9a.73.73,0,0,1-.6.63h-.71v2.13h3.58v2.71H392v-2.71h1.49v2.71h1.6v-2.83c2.73-.38,4.37-1.73,4.37-4.09C399.46,243.23,398.23,242.16,396,241.82Zm-4-5h1.12c1.65,0,2.23.65,2.23,2s-.6,2-2.23,2H392Zm1.25,10.76H392v-4.53h1.25c1.88,0,2.46.71,2.46,2.18S395.1,247.58,393.22,247.58Z" style="fill:#263238"></path><circle cx="253.73" cy="349.46" r="9.92" style="fill:#263238;stroke:#263238;stroke-linecap:round;stroke-linejoin:round"></circle><circle cx="253.12" cy="349.27" r="9.92" style="fill:#fff;stroke:#263238;stroke-linecap:round;stroke-linejoin:round"></circle><path d="M253.11,340.85a8.43,8.43,0,1,0,8.42,8.43A8.44,8.44,0,0,0,253.11,340.85Z" style="fill:#fff;stroke:#263238;stroke-linecap:round;stroke-linejoin:round"></path><path d="M255.41,349.23v-.05c1.27-.27,2-.86,2-2.08,0-1.38-.89-2.16-2.57-2.4v-1.91h-1.07v1.83h-1v-1.82h-1.07v1.82h-2.39V346h.47a.47.47,0,0,1,.4.41v6a.48.48,0,0,1-.4.42h-.47v1.42h2.39v1.81h1.07v-1.81h1v1.81h1.07v-1.88c1.81-.26,2.91-1.16,2.91-2.73C257.71,350.17,256.89,349.45,255.41,349.23Zm-2.7-3.34h.75c1.1,0,1.49.44,1.49,1.31s-.4,1.34-1.49,1.34h-.75Zm.84,7.18h-.84v-3h.84c1.25,0,1.64.47,1.64,1.46S254.8,353.07,253.55,353.07Z" style="fill:#263238"></path></g></svg>
